<mxfile host="app.diagrams.net" agent="Mozilla/5.0 (Windows NT 10.0; Win64; x64) AppleWebKit/537.36 (KHTML, like Gecko) Chrome/131.0.0.0 Safari/537.36 OPR/116.0.0.0" version="26.0.16">
  <diagram name="Página-1" id="wYABZt_R9NSGHeKH_Uqa">
    <mxGraphModel grid="1" page="1" gridSize="10" guides="1" tooltips="1" connect="1" arrows="1" fold="1" pageScale="1" pageWidth="827" pageHeight="1169" math="0" shadow="0">
      <root>
        <mxCell id="0" />
        <mxCell id="1" parent="0" />
        <mxCell id="2" value="&lt;&lt;abstract&gt;&gt;&#xa;User" style="swimlane;fontStyle=1;align=center;verticalAlign=top;childLayout=stackLayout;horizontal=1;startSize=62.25;horizontalStack=0;resizeParent=1;resizeParentMax=0;resizeLast=0;collapsible=0;marginBottom=0;" vertex="1" parent="1">
          <mxGeometry x="256" y="150" width="190" height="220" as="geometry" />
        </mxCell>
        <mxCell id="3" style="line;strokeWidth=1;fillColor=none;align=left;verticalAlign=middle;spacingTop=-1;spacingLeft=3;spacingRight=3;rotatable=0;labelPosition=right;points=[];portConstraint=eastwest;strokeColor=inherit;" vertex="1" parent="2">
          <mxGeometry y="62.25" width="190" height="7.75" as="geometry" />
        </mxCell>
        <mxCell id="4" value="- nome: String&#xa;- email: String&#xa;- senha: String&#xa;- arquivos: ArrayList&lt;File&gt;&#xa;+ login(): void&#xa;+ logout(): void&#xa;+ adicionarArquivoProprio(): void&#xa;+ removerArquivoProprio(): void&#xa;+ modificarArquivoProprio(): void" style="text;strokeColor=none;fillColor=none;align=left;verticalAlign=top;spacingLeft=4;spacingRight=4;overflow=hidden;rotatable=0;points=[[0,0.5],[1,0.5]];portConstraint=eastwest;" vertex="1" parent="2">
          <mxGeometry y="70" width="190" height="150" as="geometry" />
        </mxCell>
        <mxCell id="6" value="Aluno" style="swimlane;fontStyle=1;align=center;verticalAlign=top;childLayout=stackLayout;horizontal=1;startSize=40.57142857142857;horizontalStack=0;resizeParent=1;resizeParentMax=0;resizeLast=0;collapsible=0;marginBottom=0;" vertex="1" parent="1">
          <mxGeometry x="8" y="410" width="189" height="100.00142857142856" as="geometry" />
        </mxCell>
        <mxCell id="7" style="line;strokeWidth=1;fillColor=none;align=left;verticalAlign=middle;spacingTop=-1;spacingLeft=3;spacingRight=3;rotatable=0;labelPosition=right;points=[];portConstraint=eastwest;strokeColor=inherit;" vertex="1" parent="6">
          <mxGeometry y="40.57142857142857" width="189" height="8" as="geometry" />
        </mxCell>
        <mxCell id="9" value="- matricula: int&#xa;- tipoAssinatura: Assinatura&#xa;+ avaliar()" style="text;strokeColor=none;fillColor=none;align=left;verticalAlign=top;spacingLeft=4;spacingRight=4;overflow=hidden;rotatable=0;points=[[0,0.5],[1,0.5]];portConstraint=eastwest;" vertex="1" parent="6">
          <mxGeometry y="48.57142857142857" width="189" height="51.43" as="geometry" />
        </mxCell>
        <mxCell id="10" value="Moderador" style="swimlane;fontStyle=1;align=center;verticalAlign=top;childLayout=stackLayout;horizontal=1;startSize=47.2;horizontalStack=0;resizeParent=1;resizeParentMax=0;resizeLast=0;collapsible=0;marginBottom=0;" vertex="1" parent="1">
          <mxGeometry x="247" y="446" width="213" height="160" as="geometry" />
        </mxCell>
        <mxCell id="11" style="line;strokeWidth=1;fillColor=none;align=left;verticalAlign=middle;spacingTop=-1;spacingLeft=3;spacingRight=3;rotatable=0;labelPosition=right;points=[];portConstraint=eastwest;strokeColor=inherit;" vertex="1" parent="10">
          <mxGeometry y="47.2" width="213" height="8" as="geometry" />
        </mxCell>
        <mxCell id="12" value="- nivel&#xa;+ alertarUsuario(): void&#xa;+ banirUsuario(): void&#xa;+ removerArquivosDeUsuarios(): void&#xa;+ modificarArquivoDeUsuario(): void" style="text;strokeColor=none;fillColor=none;align=left;verticalAlign=top;spacingLeft=4;spacingRight=4;overflow=hidden;rotatable=0;points=[[0,0.5],[1,0.5]];portConstraint=eastwest;" vertex="1" parent="10">
          <mxGeometry y="55.2" width="213" height="104.8" as="geometry" />
        </mxCell>
        <mxCell id="13" value="File" style="swimlane;fontStyle=1;align=center;verticalAlign=top;childLayout=stackLayout;horizontal=1;startSize=35.55555555555556;horizontalStack=0;resizeParent=1;resizeParentMax=0;resizeLast=0;collapsible=0;marginBottom=0;" vertex="1" parent="1">
          <mxGeometry x="505" y="397" width="146" height="129.99555555555554" as="geometry" />
        </mxCell>
        <mxCell id="14" value="- nome: String&#xa;- tipo: FileType&#xa;- autor: User&#xa;- avaliação: double" style="text;strokeColor=none;fillColor=none;align=left;verticalAlign=top;spacingLeft=4;spacingRight=4;overflow=hidden;rotatable=0;points=[[0,0.5],[1,0.5]];portConstraint=eastwest;" vertex="1" parent="13">
          <mxGeometry y="35.55555555555556" width="146" height="94.44" as="geometry" />
        </mxCell>
        <mxCell id="18" value="&lt;&lt;interface&gt;&gt;&#xa;Bonus" style="swimlane;fontStyle=1;align=center;verticalAlign=top;childLayout=stackLayout;horizontal=1;startSize=71;horizontalStack=0;resizeParent=1;resizeParentMax=0;resizeLast=0;collapsible=0;marginBottom=0;" vertex="1" parent="1">
          <mxGeometry x="701" y="320" width="196" height="126" as="geometry" />
        </mxCell>
        <mxCell id="19" style="line;strokeWidth=1;fillColor=none;align=left;verticalAlign=middle;spacingTop=-1;spacingLeft=3;spacingRight=3;rotatable=0;labelPosition=right;points=[];portConstraint=eastwest;strokeColor=inherit;" vertex="1" parent="18">
          <mxGeometry y="71" width="196" height="8" as="geometry" />
        </mxCell>
        <mxCell id="20" value="+calculateCredit(): int" style="text;strokeColor=none;fillColor=none;align=left;verticalAlign=top;spacingLeft=4;spacingRight=4;overflow=hidden;rotatable=0;points=[[0,0.5],[1,0.5]];portConstraint=eastwest;" vertex="1" parent="18">
          <mxGeometry y="79" width="196" height="47" as="geometry" />
        </mxCell>
        <mxCell id="21" value="UserCredit" style="swimlane;fontStyle=1;align=center;verticalAlign=top;childLayout=stackLayout;horizontal=1;startSize=47.2;horizontalStack=0;resizeParent=1;resizeParentMax=0;resizeLast=0;collapsible=0;marginBottom=0;" vertex="1" parent="1">
          <mxGeometry x="701" y="530" width="194" height="102.2" as="geometry" />
        </mxCell>
        <mxCell id="22" style="line;strokeWidth=1;fillColor=none;align=left;verticalAlign=middle;spacingTop=-1;spacingLeft=3;spacingRight=3;rotatable=0;labelPosition=right;points=[];portConstraint=eastwest;strokeColor=inherit;" vertex="1" parent="21">
          <mxGeometry y="47.2" width="194" height="8" as="geometry" />
        </mxCell>
        <mxCell id="23" value="+calculateCredit(): int" style="text;strokeColor=none;fillColor=none;align=left;verticalAlign=top;spacingLeft=4;spacingRight=4;overflow=hidden;rotatable=0;points=[[0,0.5],[1,0.5]];portConstraint=eastwest;" vertex="1" parent="21">
          <mxGeometry y="55.2" width="194" height="47" as="geometry" />
        </mxCell>
        <mxCell id="24" value="&lt;&lt;Enum&gt;&gt;&#xa;FileType" style="swimlane;fontStyle=1;align=center;verticalAlign=top;childLayout=stackLayout;horizontal=1;startSize=55.199999999999996;horizontalStack=0;resizeParent=1;resizeParentMax=0;resizeLast=0;collapsible=0;marginBottom=0;" vertex="1" parent="1">
          <mxGeometry x="946" y="320" width="95" height="184.2" as="geometry" />
        </mxCell>
        <mxCell id="26" value="DOCX" style="text;strokeColor=none;fillColor=none;align=left;verticalAlign=top;spacingLeft=4;spacingRight=4;overflow=hidden;rotatable=0;points=[[0,0.5],[1,0.5]];portConstraint=eastwest;" vertex="1" parent="24">
          <mxGeometry y="55.199999999999996" width="95" height="37" as="geometry" />
        </mxCell>
        <mxCell id="25" value="PDF" style="text;strokeColor=none;fillColor=none;align=left;verticalAlign=top;spacingLeft=4;spacingRight=4;overflow=hidden;rotatable=0;points=[[0,0.5],[1,0.5]];portConstraint=eastwest;" vertex="1" parent="24">
          <mxGeometry y="92.19999999999999" width="95" height="37" as="geometry" />
        </mxCell>
        <mxCell id="27" value="PPT" style="text;strokeColor=none;fillColor=none;align=left;verticalAlign=top;spacingLeft=4;spacingRight=4;overflow=hidden;rotatable=0;points=[[0,0.5],[1,0.5]];portConstraint=eastwest;" vertex="1" parent="24">
          <mxGeometry y="129.2" width="95" height="37" as="geometry" />
        </mxCell>
        <mxCell id="28" style="line;strokeWidth=1;fillColor=none;align=left;verticalAlign=middle;spacingTop=-1;spacingLeft=3;spacingRight=3;rotatable=0;labelPosition=right;points=[];portConstraint=eastwest;strokeColor=inherit;" vertex="1" parent="24">
          <mxGeometry y="166.2" width="95" height="18" as="geometry" />
        </mxCell>
        <mxCell id="29" value="System" style="swimlane;fontStyle=1;align=center;verticalAlign=top;childLayout=stackLayout;horizontal=1;startSize=40.57142857142857;horizontalStack=0;resizeParent=1;resizeParentMax=0;resizeLast=0;collapsible=0;marginBottom=0;" vertex="1" parent="1">
          <mxGeometry x="570" y="150" width="186" height="110.00142857142856" as="geometry" />
        </mxCell>
        <mxCell id="30" style="line;strokeWidth=1;fillColor=none;align=left;verticalAlign=middle;spacingTop=-1;spacingLeft=3;spacingRight=3;rotatable=0;labelPosition=right;points=[];portConstraint=eastwest;strokeColor=inherit;" vertex="1" parent="29">
          <mxGeometry y="40.57142857142857" width="186" height="8" as="geometry" />
        </mxCell>
        <mxCell id="31" value="- users: ArrayList&lt;User&gt;&#xa;+userRegistration(): void&#xa;+fileStorage(): void" style="text;strokeColor=none;fillColor=none;align=left;verticalAlign=top;spacingLeft=4;spacingRight=4;overflow=hidden;rotatable=0;points=[[0,0.5],[1,0.5]];portConstraint=eastwest;" vertex="1" parent="29">
          <mxGeometry y="48.57142857142857" width="186" height="61.43" as="geometry" />
        </mxCell>
        <mxCell id="33" value="Rating" style="swimlane;fontStyle=1;align=center;verticalAlign=top;childLayout=stackLayout;horizontal=1;startSize=35.55555555555556;horizontalStack=0;resizeParent=1;resizeParentMax=0;resizeLast=0;collapsible=0;marginBottom=0;" vertex="1" parent="1">
          <mxGeometry x="1090" y="490" width="127" height="161.55555555555554" as="geometry" />
        </mxCell>
        <mxCell id="34" value="-userId: int" style="text;strokeColor=none;fillColor=none;align=left;verticalAlign=top;spacingLeft=4;spacingRight=4;overflow=hidden;rotatable=0;points=[[0,0.5],[1,0.5]];portConstraint=eastwest;" vertex="1" parent="33">
          <mxGeometry y="35.55555555555556" width="127" height="36" as="geometry" />
        </mxCell>
        <mxCell id="35" value="-fileId: int" style="text;strokeColor=none;fillColor=none;align=left;verticalAlign=top;spacingLeft=4;spacingRight=4;overflow=hidden;rotatable=0;points=[[0,0.5],[1,0.5]];portConstraint=eastwest;" vertex="1" parent="33">
          <mxGeometry y="71.55555555555556" width="127" height="36" as="geometry" />
        </mxCell>
        <mxCell id="36" value="-value: int" style="text;strokeColor=none;fillColor=none;align=left;verticalAlign=top;spacingLeft=4;spacingRight=4;overflow=hidden;rotatable=0;points=[[0,0.5],[1,0.5]];portConstraint=eastwest;" vertex="1" parent="33">
          <mxGeometry y="107.55555555555556" width="127" height="36" as="geometry" />
        </mxCell>
        <mxCell id="37" style="line;strokeWidth=1;fillColor=none;align=left;verticalAlign=middle;spacingTop=-1;spacingLeft=3;spacingRight=3;rotatable=0;labelPosition=right;points=[];portConstraint=eastwest;strokeColor=inherit;" vertex="1" parent="33">
          <mxGeometry y="143.55555555555554" width="127" height="18" as="geometry" />
        </mxCell>
        <mxCell id="38" value="" style="curved=1;startArrow=block;startSize=16;startFill=0;endArrow=none;exitX=0;exitY=0.68;entryX=0.5;entryY=0;" edge="1" parent="1" source="2" target="6">
          <mxGeometry relative="1" as="geometry">
            <Array as="points">
              <mxPoint x="103" y="225" />
            </Array>
          </mxGeometry>
        </mxCell>
        <mxCell id="39" value="" style="curved=1;startArrow=block;startSize=16;startFill=0;endArrow=none;exitX=0.5;exitY=1;entryX=0.5;entryY=0;" edge="1" parent="1" source="2" target="10">
          <mxGeometry relative="1" as="geometry">
            <Array as="points" />
          </mxGeometry>
        </mxCell>
        <mxCell id="40" value="" style="curved=1;startArrow=diamondThin;startSize=14;startFill=1;endArrow=none;exitX=1;exitY=0.69;entryX=0.5;entryY=0;" edge="1" parent="1" source="2" target="13">
          <mxGeometry relative="1" as="geometry">
            <Array as="points">
              <mxPoint x="578" y="225" />
            </Array>
          </mxGeometry>
        </mxCell>
        <mxCell id="42" value="0*" style="edgeLabel;resizable=0;labelBackgroundColor=none;fontSize=12;align=right;verticalAlign=bottom;" vertex="1" parent="40">
          <mxGeometry x="1" relative="1" as="geometry">
            <mxPoint x="22" as="offset" />
          </mxGeometry>
        </mxCell>
        <mxCell id="43" value="" style="curved=1;dashed=1;startArrow=block;startSize=16;startFill=0;endArrow=none;exitX=0.5;exitY=1;entryX=0.5;entryY=0;" edge="1" parent="1" source="18" target="21">
          <mxGeometry relative="1" as="geometry">
            <Array as="points" />
          </mxGeometry>
        </mxCell>
        <mxCell id="P-VyBrQE4UEn-uHLViO6-44" value="1...*" style="text;html=1;align=center;verticalAlign=middle;resizable=0;points=[];autosize=1;strokeColor=none;fillColor=none;" vertex="1" parent="1">
          <mxGeometry x="446" y="190" width="40" height="30" as="geometry" />
        </mxCell>
        <mxCell id="P-VyBrQE4UEn-uHLViO6-47" value="TipoArquivo&lt;div&gt;&lt;br&gt;&lt;/div&gt;" style="rounded=0;whiteSpace=wrap;html=1;" vertex="1" parent="1">
          <mxGeometry x="518" y="620" width="120" height="60" as="geometry" />
        </mxCell>
        <mxCell id="P-VyBrQE4UEn-uHLViO6-49" value="" style="endArrow=classic;html=1;rounded=0;exitX=0.507;exitY=1.018;exitDx=0;exitDy=0;exitPerimeter=0;entryX=0.5;entryY=0;entryDx=0;entryDy=0;" edge="1" parent="1" source="14" target="P-VyBrQE4UEn-uHLViO6-47">
          <mxGeometry width="50" height="50" relative="1" as="geometry">
            <mxPoint x="550" y="310" as="sourcePoint" />
            <mxPoint x="600" y="260" as="targetPoint" />
          </mxGeometry>
        </mxCell>
        <mxCell id="P-VyBrQE4UEn-uHLViO6-52" value="Avaliação" style="swimlane;fontStyle=1;align=center;verticalAlign=top;childLayout=stackLayout;horizontal=1;startSize=47.2;horizontalStack=0;resizeParent=1;resizeParentMax=0;resizeLast=0;collapsible=0;marginBottom=0;" vertex="1" parent="1">
          <mxGeometry x="247" y="660" width="208" height="102.2" as="geometry" />
        </mxCell>
        <mxCell id="P-VyBrQE4UEn-uHLViO6-53" style="line;strokeWidth=1;fillColor=none;align=left;verticalAlign=middle;spacingTop=-1;spacingLeft=3;spacingRight=3;rotatable=0;labelPosition=right;points=[];portConstraint=eastwest;strokeColor=inherit;" vertex="1" parent="P-VyBrQE4UEn-uHLViO6-52">
          <mxGeometry y="47.2" width="208" height="8" as="geometry" />
        </mxCell>
        <mxCell id="P-VyBrQE4UEn-uHLViO6-54" value="- nota: double&#xa;- comentario: String" style="text;strokeColor=none;fillColor=none;align=left;verticalAlign=top;spacingLeft=4;spacingRight=4;overflow=hidden;rotatable=0;points=[[0,0.5],[1,0.5]];portConstraint=eastwest;" vertex="1" parent="P-VyBrQE4UEn-uHLViO6-52">
          <mxGeometry y="55.2" width="208" height="47" as="geometry" />
        </mxCell>
        <mxCell id="P-VyBrQE4UEn-uHLViO6-55" value="" style="endArrow=classic;html=1;rounded=0;entryX=0.5;entryY=0;entryDx=0;entryDy=0;" edge="1" parent="1" target="P-VyBrQE4UEn-uHLViO6-52">
          <mxGeometry width="50" height="50" relative="1" as="geometry">
            <mxPoint x="350" y="610" as="sourcePoint" />
            <mxPoint x="340" y="260" as="targetPoint" />
          </mxGeometry>
        </mxCell>
        <mxCell id="u4g5ZGn02v9a-J7chSun-45" value="&lt;&lt;Enum&gt;&gt;&#xa;Assinatura" style="swimlane;fontStyle=1;align=center;verticalAlign=top;childLayout=stackLayout;horizontal=1;startSize=55.199999999999996;horizontalStack=0;resizeParent=1;resizeParentMax=0;resizeLast=0;collapsible=0;marginBottom=0;" vertex="1" parent="1">
          <mxGeometry x="946" y="550.2" width="95" height="147.2" as="geometry" />
        </mxCell>
        <mxCell id="u4g5ZGn02v9a-J7chSun-46" value="PADRAO&#xa;" style="text;strokeColor=none;fillColor=none;align=left;verticalAlign=top;spacingLeft=4;spacingRight=4;overflow=hidden;rotatable=0;points=[[0,0.5],[1,0.5]];portConstraint=eastwest;" vertex="1" parent="u4g5ZGn02v9a-J7chSun-45">
          <mxGeometry y="55.199999999999996" width="95" height="37" as="geometry" />
        </mxCell>
        <mxCell id="u4g5ZGn02v9a-J7chSun-47" value="PREMIUM" style="text;strokeColor=none;fillColor=none;align=left;verticalAlign=top;spacingLeft=4;spacingRight=4;overflow=hidden;rotatable=0;points=[[0,0.5],[1,0.5]];portConstraint=eastwest;" vertex="1" parent="u4g5ZGn02v9a-J7chSun-45">
          <mxGeometry y="92.19999999999999" width="95" height="37" as="geometry" />
        </mxCell>
        <mxCell id="u4g5ZGn02v9a-J7chSun-49" style="line;strokeWidth=1;fillColor=none;align=left;verticalAlign=middle;spacingTop=-1;spacingLeft=3;spacingRight=3;rotatable=0;labelPosition=right;points=[];portConstraint=eastwest;strokeColor=inherit;" vertex="1" parent="u4g5ZGn02v9a-J7chSun-45">
          <mxGeometry y="129.2" width="95" height="18" as="geometry" />
        </mxCell>
        <mxCell id="u4g5ZGn02v9a-J7chSun-50" value="Main" style="swimlane;fontStyle=1;align=center;verticalAlign=top;childLayout=stackLayout;horizontal=1;startSize=26;horizontalStack=0;resizeParent=1;resizeParentMax=0;resizeLast=0;collapsible=1;marginBottom=0;whiteSpace=wrap;html=1;" vertex="1" parent="1">
          <mxGeometry x="570" y="20" width="197" height="80" as="geometry" />
        </mxCell>
        <mxCell id="u4g5ZGn02v9a-J7chSun-52" value="" style="line;strokeWidth=1;fillColor=none;align=left;verticalAlign=middle;spacingTop=-1;spacingLeft=3;spacingRight=3;rotatable=0;labelPosition=right;points=[];portConstraint=eastwest;strokeColor=inherit;" vertex="1" parent="u4g5ZGn02v9a-J7chSun-50">
          <mxGeometry y="26" width="197" height="8" as="geometry" />
        </mxCell>
        <mxCell id="u4g5ZGn02v9a-J7chSun-53" value="&lt;div&gt;+ &amp;lt;&amp;lt;static&amp;gt;&amp;gt;connectServer(): void&lt;/div&gt;&lt;div&gt;+ &amp;lt;&amp;lt;static&amp;gt;&amp;gt;main(): void&lt;/div&gt;" style="text;strokeColor=none;fillColor=none;align=left;verticalAlign=top;spacingLeft=4;spacingRight=4;overflow=hidden;rotatable=0;points=[[0,0.5],[1,0.5]];portConstraint=eastwest;whiteSpace=wrap;html=1;" vertex="1" parent="u4g5ZGn02v9a-J7chSun-50">
          <mxGeometry y="34" width="197" height="46" as="geometry" />
        </mxCell>
        <mxCell id="u4g5ZGn02v9a-J7chSun-57" value="" style="endArrow=diamondThin;endFill=1;endSize=24;html=1;rounded=0;fontSize=12;curved=1;" edge="1" parent="1">
          <mxGeometry width="160" relative="1" as="geometry">
            <mxPoint x="446" y="220" as="sourcePoint" />
            <mxPoint x="570" y="220" as="targetPoint" />
          </mxGeometry>
        </mxCell>
        <mxCell id="u4g5ZGn02v9a-J7chSun-58" value="" style="endArrow=diamondThin;endFill=0;endSize=24;html=1;rounded=0;fontSize=12;curved=1;exitX=0.5;exitY=0;exitDx=0;exitDy=0;entryX=0.465;entryY=1;entryDx=0;entryDy=0;entryPerimeter=0;" edge="1" parent="1" source="29" target="u4g5ZGn02v9a-J7chSun-53">
          <mxGeometry width="160" relative="1" as="geometry">
            <mxPoint x="638" y="120" as="sourcePoint" />
            <mxPoint x="670" y="120" as="targetPoint" />
          </mxGeometry>
        </mxCell>
        <mxCell id="u4g5ZGn02v9a-J7chSun-60" value="Ranking" style="swimlane;fontStyle=1;align=center;verticalAlign=top;childLayout=stackLayout;horizontal=1;startSize=26;horizontalStack=0;resizeParent=1;resizeParentMax=0;resizeLast=0;collapsible=1;marginBottom=0;whiteSpace=wrap;html=1;" vertex="1" parent="1">
          <mxGeometry x="1070" y="320" width="240" height="130" as="geometry" />
        </mxCell>
        <mxCell id="u4g5ZGn02v9a-J7chSun-61" value="- podio: User[3]&lt;div&gt;&lt;span style=&quot;text-wrap-mode: nowrap;&quot;&gt;- users: ArrayList&amp;lt;User&amp;gt;&lt;/span&gt;&lt;br style=&quot;padding: 0px; margin: 0px; text-wrap-mode: nowrap;&quot;&gt;&lt;/div&gt;" style="text;strokeColor=none;fillColor=none;align=left;verticalAlign=top;spacingLeft=4;spacingRight=4;overflow=hidden;rotatable=0;points=[[0,0.5],[1,0.5]];portConstraint=eastwest;whiteSpace=wrap;html=1;" vertex="1" parent="u4g5ZGn02v9a-J7chSun-60">
          <mxGeometry y="26" width="240" height="44" as="geometry" />
        </mxCell>
        <mxCell id="u4g5ZGn02v9a-J7chSun-62" value="" style="line;strokeWidth=1;fillColor=none;align=left;verticalAlign=middle;spacingTop=-1;spacingLeft=3;spacingRight=3;rotatable=0;labelPosition=right;points=[];portConstraint=eastwest;strokeColor=inherit;" vertex="1" parent="u4g5ZGn02v9a-J7chSun-60">
          <mxGeometry y="70" width="240" height="8" as="geometry" />
        </mxCell>
        <mxCell id="u4g5ZGn02v9a-J7chSun-63" value="- mostrarUsuariosMaisArquivos(): void&lt;div&gt;- mostrarUsuariosMelhorAvaliados(): void&lt;/div&gt;" style="text;strokeColor=none;fillColor=none;align=left;verticalAlign=top;spacingLeft=4;spacingRight=4;overflow=hidden;rotatable=0;points=[[0,0.5],[1,0.5]];portConstraint=eastwest;whiteSpace=wrap;html=1;" vertex="1" parent="u4g5ZGn02v9a-J7chSun-60">
          <mxGeometry y="78" width="240" height="52" as="geometry" />
        </mxCell>
      </root>
    </mxGraphModel>
  </diagram>
</mxfile>
